<?xml version="1.0" standalone="no"?><!DOCTYPE svg PUBLIC "-//W3C//DTD SVG 1.1//EN" "http://www.w3.org/Graphics/SVG/1.1/DTD/svg11.dtd"><svg t="1513845744922" class="icon" style="" viewBox="0 0 1024 1024" version="1.1" xmlns="http://www.w3.org/2000/svg" p-id="31568" xmlns:xlink="http://www.w3.org/1999/xlink" width="128" height="128"><defs><style type="text/css"></style></defs><path d="M878.17989 132.790352c-1.945305-4.529153-4.6366-8.569166-8.020674-11.994172-3.396353-3.40454-7.42204-6.126534-11.983939-8.097422-4.573155-1.995447-9.577123-2.994194-14.885012-2.994194-5.287423 0-10.323113 1.019213-14.938224 3.02694-4.625344 2.032286-8.692986 4.797259-12.099572 8.222265-3.406586 3.467985-6.129604 7.518231-8.073886 12.025894-1.934049 4.597715-2.922563 9.514701-2.922563 14.836917 0 5.117554 0.988514 10.039657 2.932796 14.620999 1.955538 4.571109 4.6673 8.611122 8.020674 11.973706 3.354398 3.393283 7.391341 6.131651 11.995195 8.117888 4.573155 1.995447 9.577123 2.994194 14.885012 2.994194 5.225001 0 10.239202-1.019213 14.938224-3.025916 4.615111-2.028193 8.683776-4.796236 12.06785-8.243755 3.38612-3.362584 6.096858-7.401574 8.095375-12.004405 1.933025-4.606925 2.921539-9.514701 2.921539-14.836917C881.112686 142.274354 880.124172 137.366577 878.17989 132.790352zM872.39821 159.968341c-1.598404 3.825119-3.846608 7.229658-6.644327 10.092869-2.817162 2.888793-6.202259 5.211698-10.080589 6.881734-3.857864 1.671059-8.084119 2.51631-12.583596 2.51631-4.447289 0-8.682753-0.845251-12.540617-2.474354-3.837398-1.638313-7.201006-3.897773-10.007935-6.755868-2.869351-2.935865-5.088902-6.309706-6.633071-10.050913-1.576915-3.882424-2.38635-8.03193-2.38635-12.561084 0-4.376681 0.830925-8.527211 2.448772-12.357446 1.576915-3.824095 3.827165-7.218402 6.65456-10.124592 2.817162-2.858094 6.213515-5.179976 10.07138-6.861268 3.867074-1.659803 8.083096-2.50096 12.592806-2.50096 4.54041 0 8.756431 0.819668 12.520151 2.447748 3.847631 1.659803 7.221472 3.920286 10.038634 6.767124 2.817162 2.873444 5.045923 6.258541 6.611581 10.061147 1.607614 3.924379 2.38635 7.959276 2.38635 12.567223C874.848005 152.019299 874.01708 156.149363 872.39821 159.968341zM857.43952 146.981563c2.12336-1.986237 3.195785-4.696975 3.195785-8.280594 0-1.616824-0.315178-3.114944-0.946558-4.439102-0.599657-1.292436-1.355881-2.426259-2.269693-3.351328-1.334391-1.270946-3.006474-2.279926-4.982478-2.983961-1.998517-0.735757-4.195555-1.092891-6.728238-1.092891l-17.829064 0 0 39.545668 6.791683 0 0-14.937201 8.93551 0 11.784394 14.937201 8.777921 0-12.750395-16.092513C853.7812 149.623739 855.800183 148.510382 857.43952 146.981563zM845.00328 144.985092l-10.333346 0 0-11.583826 10.859325 0c2.596128 0 4.657067 0.545422 6.128581 1.607614 1.334391 0.966001 1.976004 2.243087 1.976004 4.093225 0 1.922792-0.725524 3.319605-2.25025 4.297886C849.755514 144.44888 847.600431 144.985092 845.00328 144.985092zM508.165672 214.343763c-1.74576 8.556886-9.226129 14.966876-18.348903 14.966876-10.355859 0.039909-18.655895-8.325619-18.655895-18.61394 0-7.386224 4.191462-13.723559 10.459213-16.740266-8.156774-2.40477-16.951067-2.608407-25.664519-0.184195-24.736381 6.847965-39.695071 32.16456-33.388435 56.861032 6.329149 24.870434 31.972179 39.705304 57.181327 32.878828 25.375947-6.888897 40.250726-32.796964 33.348526-57.738006C511.946788 221.659379 510.281869 217.807654 508.165672 214.343763zM535.388686 62.769602c-82.513272 0-154.427138 44.503587-192.82875 110.63782l-42.48972-52.910047c0 0 2.793626 38.063921 30.141484 69.750597l-77.994352-35.475979c0 0 23.606651 38.981826 69.609381 52.683896l-78.076216 75.953879c0 0 87.630826 88.191598 88.824001 90.697675-69.837578 53.967122-76.083839 118.166283-76.083839 217.268372 0 2.791579 0 325.795111 0 325.795111 32.011064-10.962679 84.857667-31.064506 145.057747-62.303998l11.876492 62.752206 5.977132 0-0.019443-72.245418c42.511209-23.098068 87.87642-51.595099 131.744533-86.215594l30.408567 157.239184 5.937223 0L587.472925 728.714763c87.899956-78.438467 163.941839-183.492104 189.193966-321.025481C795.387255 305.915341 763.765047 62.769602 535.388686 62.769602zM332.657402 348.483856l-65.831334-67.74287 66.837244 0L332.657402 348.483856zM380.694465 368.44242l83.809801 62.445214C393.146055 434.269661 380.694465 368.44242 380.694465 368.44242zM397.48078 352.845187l147.052171 5.389754C464.935078 418.86481 397.48078 352.845187 397.48078 352.845187zM469.496977 325.56896c-49.085952 0-88.967264-39.631626-88.967264-88.49552 0-48.883337 39.881312-88.476077 88.967264-88.476077 49.146327 0 88.98773 39.59274 88.98773 88.476077C558.484707 285.937334 518.643304 325.56896 469.496977 325.56896zM301.878398 937.65854c0 1.895163 2.486634 3.718695 6.718005 5.470595l12.862959-14.741749C309.008796 931.209664 301.878398 934.347121 301.878398 937.65854zM344.780511 924.313603l-20.361747 23.290449c4.00522 0.835018 8.362458 1.650593 13.313214 2.434445l24.307615-27.855418C355.852684 922.854369 350.140589 923.567613 344.780511 924.313603zM383.549489 920.153864l-28.16855 32.256658c4.480035 0.530073 9.184173 1.040702 14.115486 1.518586l30.572296-34.996049C394.358673 919.308613 388.872728 919.726122 383.549489 920.153864zM420.842861 917.699975l-33.038464 37.830607c4.704139 0.36532 9.533121 0.711198 14.547321 1.049912l34.599006-39.634696C431.465802 917.170926 426.102654 917.424706 420.842861 917.699975zM457.313493 916.223345l-36.182061 41.445948c4.848425 0.25378 9.738805 0.488117 14.792914 0.703011l37.168528-42.566468C467.751217 915.916353 462.531332 916.068825 457.313493 916.223345zM493.125117 915.488611l-38.072107 43.586704c4.951779 0.152473 9.985422 0.285502 15.081487 0.397043l38.504966-44.074821C503.441067 915.40777 498.241648 915.428236 493.125117 915.488611zM528.343223 915.418003l-38.772049 44.400233c5.054109 0.062422 10.17064 0.102331 15.32708 0.122797l38.772049-44.38079C538.616194 915.498844 533.499663 915.449725 528.343223 915.418003zM563.085492 915.916353l-38.461987 44.034912c5.219885-0.020466 10.417257-0.041956 15.533788-0.101307l38.009685-43.524283C573.23669 916.160923 568.181557 916.039149 563.085492 915.916353zM597.275175 917.036873l-37.105083 42.487673c5.363148-0.122797 10.602476-0.265036 15.798824-0.427742l36.120662-41.345664C607.220688 917.496337 602.331331 917.251767 597.275175 917.036873zM630.829386 918.860405l-34.498722 39.501666c5.506411-0.234337 10.869558-0.48914 16.128329-0.774643l32.896224-37.666878C640.651079 919.544996 635.822097 919.196049 630.829386 918.860405zM663.662165 921.54249l-30.388101 34.801621c5.712095-0.38681 11.218506-0.805342 16.518209-1.252527l27.963888-32.012088C673.297616 922.53919 668.593478 922.030607 663.662165 921.54249zM671.366637 953.003016c6.204305-0.682545 11.958356-1.406023 17.321504-2.170432l19.950378-22.854521c-3.966335-0.855484-8.321526-1.680269-13.253862-2.464121L671.366637 953.003016zM724.357526 932.60443l-12.244882 14.009062c11.504008-2.739391 17.97642-5.767354 17.97642-8.955976C730.08804 935.915849 727.97389 934.236604 724.357526 932.60443z" p-id="31569" fill="#1296db"></path></svg>